<svg width="16" height="21" viewBox="0 0 16 21" fill="none" xmlns="http://www.w3.org/2000/svg">
<path d="M13.4622 18.8333H4.77051C3.33405 18.8333 2.16634 17.6655 2.16634 16.2291C2.16634 14.7926 3.33405 13.6249 4.77051 13.6249H12.0622C14.0726 13.6249 15.708 11.9895 15.708 9.97909C15.708 7.96867 14.0726 6.33325 12.0622 6.33325H6.99863C6.61608 7.08313 6.14235 7.78287 5.58822 8.41659H12.0622C12.9236 8.41659 13.6247 9.11763 13.6247 9.97909C13.6247 10.8405 12.9236 11.5416 12.0622 11.5416H4.77051C2.18613 11.5416 0.0830078 13.6447 0.0830078 16.2291C0.0830078 18.8135 2.18613 20.9166 4.77051 20.9166H14.7632C14.2521 20.2736 13.8156 19.5747 13.4622 18.8333ZM3.20801 0.083252C1.48509 0.083252 0.0830078 1.48534 0.0830078 3.20825C0.0830078 6.52909 3.20801 8.41659 3.20801 8.41659C3.20801 8.41659 6.33301 6.52804 6.33301 3.20825C6.33301 1.48534 4.93092 0.083252 3.20801 0.083252ZM3.20801 4.77075C3.00275 4.77068 2.79951 4.73019 2.60991 4.65158C2.4203 4.57296 2.24803 4.45777 2.10294 4.31259C1.95785 4.1674 1.84277 3.99505 1.76429 3.80539C1.6858 3.61573 1.64544 3.41247 1.64551 3.20721C1.64558 3.00195 1.68607 2.79872 1.76468 2.60911C1.8433 2.4195 1.95849 2.24723 2.10367 2.10214C2.24886 1.95705 2.42121 1.84197 2.61087 1.76349C2.80053 1.685 3.00379 1.64464 3.20905 1.64471C3.62359 1.64485 4.02109 1.80966 4.31412 2.10288C4.60714 2.3961 4.77169 2.79371 4.77155 3.20825C4.77141 3.62279 4.6066 4.0203 4.31338 4.31332C4.02016 4.60635 3.62255 4.77089 3.20801 4.77075Z" fill="white"/>
</svg>
